<svg width="467.4750122070312px" height="115.2000030517578px" xmlns="http://www.w3.org/2000/svg" viewBox="16.262493896484386 17.399998474121098 467.4750122070312 115.2000030517578" style="background: none;" preserveAspectRatio="xMidYMid"><defs><linearGradient id="editing-outline-gradient" x1="-0.41354545764260087" x2="1.4135454576426008" y1="0.09326335692419985" y2="0.9067366430758002"><stop offset="0" stop-color="#dc93f8"></stop><stop offset="1" stop-color="#1b0629"></stop></linearGradient><filter id="editing-outline" x="-100%" y="-100%" width="300%" height="300%"><feMorphology in="SourceGraphic" operator="dilate" radius="1" result="outline"></feMorphology><feComposite operator="out" in="outline" in2="SourceAlpha"></feComposite></filter></defs><g filter="url(#editing-outline)"><g transform="translate(86.63999915122986, 96.53499221801758)"><path d="M16.06-39.74L16.06-39.74L16.06-39.74Q12.61-39.74 10.43-38.08L10.43-38.08L10.43-38.08Q8.26-36.42 8.26-33.41L8.26-33.41L8.26-33.41Q8.26-29.95 11.14-27.20L11.14-27.20L11.14-27.20Q13.18-25.22 16.42-23.01L16.42-23.01L16.42-23.01Q19.65-20.80 20.86-19.84L20.86-19.84L20.86-19.84Q22.08-18.88 23.81-17.22L23.81-17.22L23.81-17.22Q26.94-14.08 26.94-9.98L26.94-9.98L26.94-9.98Q26.94-4.67 23.39-1.95L23.39-1.95L23.39-1.95Q19.84 0.77 13.47 0.77L13.47 0.77L13.47 0.77Q7.10 0.77 2.82-2.56L2.82-2.56L4.35-4.80L4.35-4.80Q8.70-1.86 13.57-1.86L13.57-1.86L13.57-1.86Q18.43-1.86 21.15-3.90L21.15-3.90L21.15-3.90Q23.87-5.95 23.87-9.66L23.87-9.66L23.87-9.66Q23.87-12.86 21.12-15.55L21.12-15.55L21.12-15.55Q19.20-17.47 15.97-19.71L15.97-19.71L15.97-19.71Q12.74-21.95 11.46-22.94L11.46-22.94L11.46-22.94Q10.18-23.94 8.45-25.60L8.45-25.60L8.45-25.60Q5.18-28.86 5.18-33.15L5.18-33.15L5.18-33.15Q5.18-37.44 8.22-39.87L8.22-39.87L8.22-39.87Q11.26-42.30 16.64-42.30L16.64-42.30L16.64-42.30Q22.02-42.30 26.30-40.19L26.30-40.19L25.22-37.82L25.22-37.82Q21.25-39.74 16.06-39.74ZM57.09 0.64L57.09 0.64L57.09 0.64Q48.19 0.64 42.18-5.57L42.18-5.57L42.18-5.57Q36.16-11.78 36.16-20.77L36.16-20.77L36.16-20.77Q36.16-29.76 42.18-35.97L42.18-35.97L42.18-35.97Q48.19-42.18 57.09-42.18L57.09-42.18L57.09-42.18Q65.98-42.18 72-35.97L72-35.97L72-35.97Q78.02-29.76 78.02-20.77L78.02-20.77L78.02-20.77Q78.02-11.78 72-5.57L72-5.57L72-5.57Q65.98 0.64 57.09 0.64ZM57.12-39.55L57.12-39.55L57.12-39.55Q49.41-39.55 44.32-34.11L44.32-34.11L44.32-34.11Q39.23-28.67 39.23-20.77L39.23-20.77L39.23-20.77Q39.23-12.86 44.32-7.46L44.32-7.46L44.32-7.46Q49.41-2.05 57.12-2.05L57.12-2.05L57.12-2.05Q64.83-2.05 69.89-7.46L69.89-7.46L69.89-7.46Q74.94-12.86 74.94-20.77L74.94-20.77L74.94-20.77Q74.94-28.67 69.89-34.11L69.89-34.11L69.89-34.11Q64.83-39.55 57.12-39.55ZM99.20-39.74L99.20-39.74L99.20-39.74Q95.74-39.74 93.57-38.08L93.57-38.08L93.57-38.08Q91.39-36.42 91.39-33.41L91.39-33.41L91.39-33.41Q91.39-29.95 94.27-27.20L94.27-27.20L94.27-27.20Q96.32-25.22 99.55-23.01L99.55-23.01L99.55-23.01Q102.78-20.80 104-19.84L104-19.84L104-19.84Q105.22-18.88 106.94-17.22L106.94-17.22L106.94-17.22Q110.08-14.08 110.08-9.98L110.08-9.98L110.08-9.98Q110.08-4.67 106.53-1.95L106.53-1.95L106.53-1.95Q102.98 0.77 96.61 0.77L96.61 0.77L96.61 0.77Q90.24 0.77 85.95-2.56L85.95-2.56L87.49-4.80L87.49-4.80Q91.84-1.86 96.70-1.86L96.70-1.86L96.70-1.86Q101.57-1.86 104.29-3.90L104.29-3.90L104.29-3.90Q107.01-5.95 107.01-9.66L107.01-9.66L107.01-9.66Q107.01-12.86 104.26-15.55L104.26-15.55L104.26-15.55Q102.34-17.47 99.10-19.71L99.10-19.71L99.10-19.71Q95.87-21.95 94.59-22.94L94.59-22.94L94.59-22.94Q93.31-23.94 91.58-25.60L91.58-25.60L91.58-25.60Q88.32-28.86 88.32-33.15L88.32-33.15L88.32-33.15Q88.32-37.44 91.36-39.87L91.36-39.87L91.36-39.87Q94.40-42.30 99.78-42.30L99.78-42.30L99.78-42.30Q105.15-42.30 109.44-40.19L109.44-40.19L108.35-37.82L108.35-37.82Q104.38-39.74 99.20-39.74ZM156.61 0L153.66 0L153.66-20.99L124.80-20.99L124.80 0L121.86 0L121.86-41.54L124.80-41.54L124.80-23.62L153.66-23.62L153.66-41.54L156.61-41.54L156.61 0ZM204.86-31.49L191.23-2.18L189.50-2.18L177.41-31.55L177.41-31.55Q176.64-33.28 175.87-35.58L175.87-35.58L175.87-35.58Q175.87-35.52 175.78-34.88L175.78-34.88L175.78-34.88Q175.68-34.24 175.55-33.18L175.55-33.18L175.55-33.18Q175.42-32.13 175.30-31.42L175.30-31.42L170.50 0L167.62 0L174.40-41.79L176.13-41.79L189.06-11.14L189.06-11.14Q190.59-7.30 190.59-7.10L190.59-7.10L190.59-7.10Q191.04-8.45 192.32-11.07L192.32-11.07L206.72-41.79L208.45-41.79L214.78 0L211.71 0L207.17-31.55L207.17-31.55Q206.72-34.69 206.72-35.71L206.72-35.71L204.86-31.49ZM245.82 0L225.79 0L225.79-41.54L245.18-41.54L245.18-38.98L228.74-38.98L228.74-23.87L243.58-23.87L243.58-21.38L228.74-21.38L228.74-2.69L245.82-2.69L245.82 0ZM277.63 0L257.60 0L257.60-41.54L276.99-41.54L276.99-38.98L260.54-38.98L260.54-23.87L275.39-23.87L275.39-21.38L260.54-21.38L260.54-2.69L277.63-2.69L277.63 0ZM302.72-2.18L302.72-2.18L302.72-2.18Q310.91-2.18 315.87-6.59L315.87-6.59L315.87-6.59Q320.83-11.01 320.83-19.90L320.83-19.90L320.83-19.90Q320.83-28.80 315.23-34.05L315.23-34.05L315.23-34.05Q309.63-39.30 301.44-39.30L301.44-39.30L301.44-39.30Q295.62-39.30 292.48-39.04L292.48-39.04L292.48-2.62L292.48-2.62Q296.32-2.18 302.72-2.18ZM301.44-41.92L301.44-41.92L301.44-41.92Q311.04-41.92 317.47-36L317.47-36L317.47-36Q323.90-30.08 323.90-19.90L323.90-19.90L323.90-19.90Q323.90-9.73 317.98-4.61L317.98-4.61L317.98-4.61Q312.06 0.51 302.72 0.51L302.72 0.51L302.72 0.51Q296.26 0.51 289.41-0.13L289.41-0.13L289.41-41.54L289.41-41.54Q294.53-41.92 301.44-41.92Z" fill="url(#editing-outline-gradient)"></path></g></g><style>text {
  font-size: 64px;
  font-family: Arial Black;
  dominant-baseline: central;
  text-anchor: middle;
}</style></svg>